STARTFONT 2.1
FONT -MIT-36VPLY KST-Medium-R-Normal--36-12-200-200-P-10-ISO8859-1
SIZE 12 200 200
FONTBOUNDINGBOX 14 36 0 -9
STARTPROPERTIES 17
ADD_STYLE_NAME ""
AVERAGE_WIDTH 10
CHARSET_ENCODING "1"
CHARSET_REGISTRY "ISO8859"
DEFAULT_CHAR 0
FAMILY "36VPLY KST"
FONT_ASCENT 27
FONT_DESCENT 9
FOUNDRY "MIT"
PIXEL_SIZE 36
POINT_SIZE 12
RESOLUTION_X 200
RESOLUTION_Y 200
SETWIDTH_NAME "Normal"
SLANT "R"
SPACING "P"
WEIGHT_NAME "Medium"
ENDPROPERTIES
CHARS 82
STARTCHAR char26
ENCODING 26
SWIDTH 830 0
DWIDTH 10 0
BBX 7 36 0 -9
BITMAP
00
00
00
00
00
00
00
00
00
00
00
00
00
00
06
06
0C
FE
FE
18
30
FE
FE
60
C0
C0
00
00
00
00
00
00
00
00
00
00
ENDCHAR
STARTCHAR char28
ENCODING 28
SWIDTH 1079 0
DWIDTH 13 0
BBX 9 36 0 -9
BITMAP
0000
0000
0000
0000
0000
0000
0000
0000
0000
0000
0000
0000
0000
0180
0780
1E00
7800
E000
E000
7800
1E00
0780
0180
0000
FF80
FF80
0000
0000
0000
0000
0000
0000
0000
0000
0000
0000
ENDCHAR
STARTCHAR char29
ENCODING 29
SWIDTH 1079 0
DWIDTH 13 0
BBX 9 36 0 -9
BITMAP
0000
0000
0000
0000
0000
0000
0000
0000
0000
0000
0000
0000
0000
C000
F000
3C00
0F00
0380
0380
0F00
3C00
F000
C000
0000
FF80
FF80
0000
0000
0000
0000
0000
0000
0000
0000
0000
0000
ENDCHAR
STARTCHAR char32
ENCODING 32
SWIDTH 830 0
DWIDTH 10 0
BBX 1 36 0 -9
BITMAP
00
00
00
00
00
00
00
00
00
00
00
00
00
00
00
00
00
00
00
00
00
00
00
00
00
00
00
00
00
00
00
00
00
00
00
00
ENDCHAR
STARTCHAR char33
ENCODING 33
SWIDTH 498 0
DWIDTH 6 0
BBX 3 36 0 -9
BITMAP
00
00
00
00
00
00
00
00
00
E0
E0
E0
E0
E0
E0
E0
E0
E0
E0
C0
C0
C0
00
C0
C0
C0
C0
00
00
00
00
00
00
00
00
00
ENDCHAR
STARTCHAR char34
ENCODING 34
SWIDTH 747 0
DWIDTH 9 0
BBX 6 36 0 -9
BITMAP
00
00
00
00
00
00
00
EC
CC
DC
DC
DC
DC
CC
00
00
00
00
00
00
00
00
00
00
00
00
00
00
00
00
00
00
00
00
00
00
ENDCHAR
STARTCHAR char36
ENCODING 36
SWIDTH 996 0
DWIDTH 12 0
BBX 8 36 0 -9
BITMAP
00
00
00
00
00
00
7E
FF
FF
FF
DB
DB
DB
DB
F8
F8
78
3E
1F
1F
1B
DB
DB
DB
FF
FE
7C
00
00
00
00
00
00
00
00
00
ENDCHAR
STARTCHAR char37
ENCODING 37
SWIDTH 1079 0
DWIDTH 13 0
BBX 9 36 0 -9
BITMAP
0000
0000
0000
0000
0000
0000
0000
7380
D380
D780
7700
0700
0F00
0E00
0E00
1E00
1C00
1C00
3C00
3800
3800
7800
7000
7380
F680
E680
E380
0000
0000
0000
0000
0000
0000
0000
0000
0000
ENDCHAR
STARTCHAR char38
ENCODING 38
SWIDTH 1162 0
DWIDTH 14 0
BBX 11 36 0 -9
BITMAP
0000
0000
0000
0000
0000
0000
0000
0000
0000
1F00
1F00
3F80
3B80
3B80
3F80
3F00
1E00
3C00
7E00
EEE0
E7E0
E7C0
E380
E780
FFC0
FDC0
78E0
0000
0000
0000
0000
0000
0000
0000
0000
0000
ENDCHAR
STARTCHAR char39
ENCODING 39
SWIDTH 498 0
DWIDTH 6 0
BBX 3 36 0 -9
BITMAP
00
00
00
00
00
00
00
E0
C0
C0
C0
E0
E0
C0
00
00
00
00
00
00
00
00
00
00
00
00
00
00
00
00
00
00
00
00
00
00
ENDCHAR
STARTCHAR char40
ENCODING 40
SWIDTH 913 0
DWIDTH 11 0
BBX 8 36 0 -9
BITMAP
00
00
00
00
00
00
00
0F
3F
78
70
F0
F0
F0
F0
F0
F0
F0
F0
F0
F0
F0
F0
70
78
3F
0F
00
00
00
00
00
00
00
00
00
ENDCHAR
STARTCHAR char41
ENCODING 41
SWIDTH 913 0
DWIDTH 11 0
BBX 8 36 0 -9
BITMAP
00
00
00
00
00
00
00
F0
FC
1E
0E
0F
0F
0F
0F
0F
0F
0F
0F
0F
0F
0F
0F
0E
1E
FC
F0
00
00
00
00
00
00
00
00
00
ENDCHAR
STARTCHAR char42
ENCODING 42
SWIDTH 913 0
DWIDTH 11 0
BBX 9 36 0 -9
BITMAP
0000
0000
0000
0000
0000
0000
0000
0000
0000
0000
E380
E380
7700
3E00
FF80
FF80
3E00
7700
E380
E380
0000
0000
0000
0000
0000
0000
0000
0000
0000
0000
0000
0000
0000
0000
0000
0000
ENDCHAR
STARTCHAR char43
ENCODING 43
SWIDTH 830 0
DWIDTH 10 0
BBX 7 36 0 -9
BITMAP
00
00
00
00
00
00
00
00
00
00
00
00
00
00
00
38
38
38
38
FE
FE
FE
38
38
38
38
00
00
00
00
00
00
00
00
00
00
ENDCHAR
STARTCHAR char44
ENCODING 44
SWIDTH 581 0
DWIDTH 7 0
BBX 3 36 0 -9
BITMAP
00
00
00
00
00
00
00
00
00
00
00
00
00
00
00
00
00
00
00
00
00
00
E0
E0
E0
E0
E0
C0
80
00
00
00
00
00
00
00
ENDCHAR
STARTCHAR char45
ENCODING 45
SWIDTH 830 0
DWIDTH 10 0
BBX 7 36 0 -9
BITMAP
00
00
00
00
00
00
00
00
00
00
00
00
00
00
00
00
00
00
00
FE
FE
FE
00
00
00
00
00
00
00
00
00
00
00
00
00
00
ENDCHAR
STARTCHAR char46
ENCODING 46
SWIDTH 415 0
DWIDTH 5 0
BBX 2 36 0 -9
BITMAP
00
00
00
00
00
00
00
00
00
00
00
00
00
00
00
00
00
00
00
00
00
00
00
C0
C0
C0
C0
00
00
00
00
00
00
00
00
00
ENDCHAR
STARTCHAR char47
ENCODING 47
SWIDTH 996 0
DWIDTH 12 0
BBX 9 36 0 -9
BITMAP
0000
0000
0000
0000
0000
0000
0000
0380
0380
0780
0700
0700
0F00
0E00
0E00
1E00
1C00
1C00
3C00
3800
3800
7800
7000
7000
F000
E000
E000
0000
0000
0000
0000
0000
0000
0000
0000
0000
ENDCHAR
STARTCHAR char48
ENCODING 48
SWIDTH 747 0
DWIDTH 9 0
BBX 6 36 0 -9
BITMAP
00
00
00
00
00
00
00
00
78
FC
FC
FC
FC
CC
CC
CC
CC
CC
CC
CC
CC
CC
FC
FC
FC
FC
78
00
00
00
00
00
00
00
00
00
ENDCHAR
STARTCHAR char49
ENCODING 49
SWIDTH 747 0
DWIDTH 9 0
BBX 6 36 0 -9
BITMAP
00
00
00
00
00
00
00
00
00
38
78
78
F8
38
38
38
38
38
38
38
38
38
38
7C
7C
7C
7C
00
00
00
00
00
00
00
00
00
ENDCHAR
STARTCHAR char50
ENCODING 50
SWIDTH 913 0
DWIDTH 11 0
BBX 8 36 0 -9
BITMAP
00
00
00
00
00
00
00
00
00
7E
7E
FF
FF
FF
E7
E7
C7
1F
3E
7C
60
E3
E7
FF
FF
FF
FF
00
00
00
00
00
00
00
00
00
ENDCHAR
STARTCHAR char51
ENCODING 51
SWIDTH 913 0
DWIDTH 11 0
BBX 8 36 0 -9
BITMAP
00
00
00
00
00
00
00
00
00
FF
FF
FF
FF
FF
C6
0E
1C
3E
3E
06
C7
C7
FF
FF
FE
FE
7C
00
00
00
00
00
00
00
00
00
ENDCHAR
STARTCHAR char58
ENCODING 58
SWIDTH 415 0
DWIDTH 5 0
BBX 2 36 0 -9
BITMAP
00
00
00
00
00
00
00
00
00
00
00
00
00
00
C0
C0
C0
C0
00
00
00
00
00
C0
C0
C0
C0
00
00
00
00
00
00
00
00
00
ENDCHAR
STARTCHAR char59
ENCODING 59
SWIDTH 581 0
DWIDTH 7 0
BBX 3 36 0 -9
BITMAP
00
00
00
00
00
00
00
00
00
00
00
00
00
E0
E0
E0
C0
00
00
00
00
00
E0
E0
E0
E0
E0
C0
80
00
00
00
00
00
00
00
ENDCHAR
STARTCHAR char60
ENCODING 60
SWIDTH 996 0
DWIDTH 12 0
BBX 9 36 0 -9
BITMAP
0000
0000
0000
0000
0000
0000
0000
0000
0000
0000
0000
0000
0000
0000
0000
0180
0780
1E00
7800
E000
E000
7800
1E00
0780
0180
0000
0000
0000
0000
0000
0000
0000
0000
0000
0000
0000
ENDCHAR
STARTCHAR char61
ENCODING 61
SWIDTH 830 0
DWIDTH 10 0
BBX 7 36 0 -9
BITMAP
00
00
00
00
00
00
00
00
00
00
00
00
00
00
00
00
00
FE
FE
00
00
FE
FE
00
00
00
00
00
00
00
00
00
00
00
00
00
ENDCHAR
STARTCHAR char62
ENCODING 62
SWIDTH 996 0
DWIDTH 12 0
BBX 9 36 0 -9
BITMAP
0000
0000
0000
0000
0000
0000
0000
0000
0000
0000
0000
0000
0000
0000
0000
C000
F000
3C00
0F00
0380
0380
0F00
3C00
F000
C000
0000
0000
0000
0000
0000
0000
0000
0000
0000
0000
0000
ENDCHAR
STARTCHAR char63
ENCODING 63
SWIDTH 747 0
DWIDTH 9 0
BBX 6 36 0 -9
BITMAP
00
00
00
00
00
00
00
00
30
78
FC
FC
FC
FC
DC
DC
1C
1C
38
30
30
20
00
70
70
70
20
00
00
00
00
00
00
00
00
00
ENDCHAR
STARTCHAR char65
ENCODING 65
SWIDTH 996 0
DWIDTH 12 0
BBX 10 36 0 -9
BITMAP
0000
0000
0000
0000
0000
0000
0000
1E00
1E00
1E00
1E00
3F00
3F00
3300
3300
3F00
3F00
3300
7380
6180
6180
7380
F3C0
F3C0
F3C0
F3C0
F3C0
0000
0000
0000
0000
0000
0000
0000
0000
0000
ENDCHAR
STARTCHAR char66
ENCODING 66
SWIDTH 913 0
DWIDTH 11 0
BBX 8 36 0 -9
BITMAP
00
00
00
00
00
00
00
FC
FE
FF
FF
FF
67
67
67
66
7E
7E
66
67
67
67
FF
FF
FF
FE
FC
00
00
00
00
00
00
00
00
00
ENDCHAR
STARTCHAR char67
ENCODING 67
SWIDTH 830 0
DWIDTH 10 0
BBX 8 36 0 -9
BITMAP
00
00
00
00
00
00
3C
7E
FF
FF
FF
E7
E7
E7
E0
E0
E0
E0
E0
E7
E7
E7
E7
FF
FF
7E
3C
00
00
00
00
00
00
00
00
00
ENDCHAR
STARTCHAR char68
ENCODING 68
SWIDTH 996 0
DWIDTH 12 0
BBX 10 36 0 -9
BITMAP
0000
0000
0000
0000
0000
0000
0000
FF00
FF80
FF80
FFC0
39C0
39C0
39C0
39C0
39C0
39C0
39C0
39C0
39C0
39C0
39C0
39C0
FFC0
FFC0
FF80
FF00
0000
0000
0000
0000
0000
0000
0000
0000
0000
ENDCHAR
STARTCHAR char69
ENCODING 69
SWIDTH 913 0
DWIDTH 11 0
BBX 9 36 0 -9
BITMAP
0000
0000
0000
0000
0000
0000
0000
FF80
FF80
FF80
FF80
7380
7380
7380
7380
7000
7E00
7E00
7000
7380
7380
7380
7380
FF80
FF80
FF80
FF80
0000
0000
0000
0000
0000
0000
0000
0000
0000
ENDCHAR
STARTCHAR char70
ENCODING 70
SWIDTH 913 0
DWIDTH 11 0
BBX 9 36 0 -9
BITMAP
0000
0000
0000
0000
0000
0000
0000
FF80
FF80
FF80
FF80
7980
7980
7980
7980
7980
7800
7F00
7F00
7800
7800
7800
7800
FC00
FC00
FC00
FC00
0000
0000
0000
0000
0000
0000
0000
0000
0000
ENDCHAR
STARTCHAR char71
ENCODING 71
SWIDTH 913 0
DWIDTH 11 0
BBX 9 36 0 -9
BITMAP
0000
0000
0000
0000
0000
0000
7E00
FF00
FF00
FF00
E700
E700
E700
E000
E000
E000
EF80
EF80
E700
E700
E700
E700
E700
FF00
FF00
FF00
7B00
0000
0000
0000
0000
0000
0000
0000
0000
0000
ENDCHAR
STARTCHAR char72
ENCODING 72
SWIDTH 1328 0
DWIDTH 16 0
BBX 14 36 0 -9
BITMAP
0000
0000
0000
0000
0000
0000
FCFC
FCFC
FCFC
FCFC
7878
7878
7878
7878
7878
7FF8
7FF8
7FF8
7878
7878
7878
7878
7878
FCFC
FCFC
FCFC
FCFC
0000
0000
0000
0000
0000
0000
0000
0000
0000
ENDCHAR
STARTCHAR char73
ENCODING 73
SWIDTH 664 0
DWIDTH 8 0
BBX 6 36 0 -9
BITMAP
00
00
00
00
00
00
FC
FC
FC
FC
78
78
78
78
78
78
78
78
78
78
78
78
78
FC
FC
FC
FC
00
00
00
00
00
00
00
00
00
ENDCHAR
STARTCHAR char74
ENCODING 74
SWIDTH 913 0
DWIDTH 11 0
BBX 9 36 0 -9
BITMAP
0000
0000
0000
0000
0000
0000
0F80
0F80
0F80
0F80
0700
0700
0700
0700
0700
0700
0700
E700
E700
E700
E700
E700
E700
FF00
FF00
7E00
3C00
0000
0000
0000
0000
0000
0000
0000
0000
0000
ENDCHAR
STARTCHAR char75
ENCODING 75
SWIDTH 996 0
DWIDTH 12 0
BBX 10 36 0 -9
BITMAP
0000
0000
0000
0000
0000
0000
F3C0
F3C0
F3C0
F3C0
71C0
7380
7300
7700
7E00
7E00
7C00
7E00
7E00
7700
7300
7380
7180
F3C0
F3C0
F3C0
F3C0
0000
0000
0000
0000
0000
0000
0000
0000
0000
ENDCHAR
STARTCHAR char76
ENCODING 76
SWIDTH 913 0
DWIDTH 11 0
BBX 9 36 0 -9
BITMAP
0000
0000
0000
0000
0000
0000
F800
F800
F800
F800
7000
7000
7000
7000
7000
7000
7000
7000
7380
7380
7380
7380
7380
FF80
FF80
FF80
FF80
0000
0000
0000
0000
0000
0000
0000
0000
0000
ENDCHAR
STARTCHAR char77
ENCODING 77
SWIDTH 1245 0
DWIDTH 15 0
BBX 13 36 0 -9
BITMAP
0000
0000
0000
0000
0000
0000
F8F8
F8F8
F8F8
F8F8
7070
78F0
7DF0
7DF0
7DF0
7FF0
7FF0
7FF0
7FF0
7770
7770
7270
7270
F8F8
F8F8
F8F8
F8F8
0000
0000
0000
0000
0000
0000
0000
0000
0000
ENDCHAR
STARTCHAR char78
ENCODING 78
SWIDTH 1079 0
DWIDTH 13 0
BBX 11 36 0 -9
BITMAP
0000
0000
0000
0000
0000
0000
F3E0
F3E0
F3E0
F3E0
71C0
79C0
79C0
7DC0
7DC0
7FC0
7FC0
7FC0
77C0
77C0
73C0
73C0
71C0
F9E0
F9E0
F9E0
F9E0
0000
0000
0000
0000
0000
0000
0000
0000
0000
ENDCHAR
STARTCHAR char79
ENCODING 79
SWIDTH 830 0
DWIDTH 10 0
BBX 8 36 0 -9
BITMAP
00
00
00
00
00
00
3C
7E
FF
FF
E7
E7
E7
E7
E7
E7
E7
E7
E7
E7
E7
E7
E7
FF
FF
7E
3C
00
00
00
00
00
00
00
00
00
ENDCHAR
STARTCHAR char80
ENCODING 80
SWIDTH 913 0
DWIDTH 11 0
BBX 9 36 0 -9
BITMAP
0000
0000
0000
0000
0000
0000
0000
FE00
FF00
FF80
FF80
7380
7380
7380
7380
7380
7F80
7F00
7E00
7000
7000
7000
7000
F800
F800
F800
F800
0000
0000
0000
0000
0000
0000
0000
0000
0000
ENDCHAR
STARTCHAR char81
ENCODING 81
SWIDTH 913 0
DWIDTH 11 0
BBX 9 36 0 -9
BITMAP
0000
0000
0000
0000
0000
0000
3C00
7E00
FF00
FF00
E700
E700
E700
E700
E700
E700
E700
E700
F700
FF00
FF00
FF00
EF00
E780
FF80
FF80
7980
0000
0000
0000
0000
0000
0000
0000
0000
0000
ENDCHAR
STARTCHAR char82
ENCODING 82
SWIDTH 1079 0
DWIDTH 13 0
BBX 11 36 0 -9
BITMAP
0000
0000
0000
0000
0000
0000
FF00
FF80
FF80
FF80
7380
7380
7380
7380
7380
7F80
7F80
7F80
7380
7380
73A0
73E0
71E0
F9E0
F9E0
F9E0
F8C0
0000
0000
0000
0000
0000
0000
0000
0000
0000
ENDCHAR
STARTCHAR char83
ENCODING 83
SWIDTH 830 0
DWIDTH 10 0
BBX 8 36 0 -9
BITMAP
00
00
00
00
00
00
7E
FF
FF
FF
E7
E7
E7
E7
E0
F0
78
1E
0F
E7
E7
E7
E7
FF
FF
FE
DC
00
00
00
00
00
00
00
00
00
ENDCHAR
STARTCHAR char84
ENCODING 84
SWIDTH 1079 0
DWIDTH 13 0
BBX 11 36 0 -9
BITMAP
0000
0000
0000
0000
0000
0000
FFE0
FFE0
FFE0
FFE0
CE60
CE60
CE60
0E00
0E00
0E00
0E00
0E00
0E00
0E00
0E00
0E00
0E00
1F00
1F00
1F00
1F00
0000
0000
0000
0000
0000
0000
0000
0000
0000
ENDCHAR
STARTCHAR char85
ENCODING 85
SWIDTH 830 0
DWIDTH 10 0
BBX 8 36 0 -9
BITMAP
00
00
00
00
00
00
E7
E7
E7
E7
E7
E7
E7
E7
E7
E7
E7
E7
E7
E7
E7
E7
FF
FF
7E
7E
3C
00
00
00
00
00
00
00
00
00
ENDCHAR
STARTCHAR char86
ENCODING 86
SWIDTH 1162 0
DWIDTH 14 0
BBX 12 36 0 -9
BITMAP
0000
0000
0000
0000
0000
0000
F9F0
F9F0
F9F0
F9F0
70E0
70E0
70E0
70E0
70E0
79E0
79E0
39C0
39C0
39C0
3FC0
1F80
1F80
1F80
0F00
0F00
0F00
0000
0000
0000
0000
0000
0000
0000
0000
0000
ENDCHAR
STARTCHAR char87
ENCODING 87
SWIDTH 1245 0
DWIDTH 15 0
BBX 13 36 0 -9
BITMAP
0000
0000
0000
0000
0000
0000
F8F8
F8F8
F8F8
F8F8
7070
7270
7770
7770
7770
7770
7FF0
7FF0
7FF0
7DF0
7DF0
38E0
38E0
3DE0
3DE0
3DE0
3DE0
0000
0000
0000
0000
0000
0000
0000
0000
0000
ENDCHAR
STARTCHAR char88
ENCODING 88
SWIDTH 996 0
DWIDTH 12 0
BBX 10 36 0 -9
BITMAP
0000
0000
0000
0000
0000
0000
F3C0
F3C0
F3C0
F3C0
6180
7380
7380
3300
3F00
1E00
1E00
1E00
3F00
3300
7380
7380
6180
F3C0
F3C0
F3C0
F3C0
0000
0000
0000
0000
0000
0000
0000
0000
0000
ENDCHAR
STARTCHAR char89
ENCODING 89
SWIDTH 1162 0
DWIDTH 14 0
BBX 12 36 0 -9
BITMAP
0000
0000
0000
0000
0000
0000
F9F0
F9F0
F9F0
F9F0
70E0
30C0
39C0
19C0
1F80
0F80
0F00
0F00
0F00
0F00
0F00
0F00
0F00
1F80
1F80
1F80
1F80
0000
0000
0000
0000
0000
0000
0000
0000
0000
ENDCHAR
STARTCHAR char90
ENCODING 90
SWIDTH 830 0
DWIDTH 10 0
BBX 8 36 0 -9
BITMAP
00
00
00
00
00
00
FF
FF
FF
FF
E7
E7
07
0E
1E
1C
3C
38
78
70
E0
E7
E7
FF
FF
FF
FF
00
00
00
00
00
00
00
00
00
ENDCHAR
STARTCHAR char91
ENCODING 91
SWIDTH 913 0
DWIDTH 11 0
BBX 8 36 0 -9
BITMAP
00
00
00
00
00
00
FF
FF
F0
F0
F0
F0
F0
F0
F0
F0
F0
F0
F0
F0
F0
F0
F0
F0
F0
FF
FF
00
00
00
00
00
00
00
00
00
ENDCHAR
STARTCHAR char93
ENCODING 93
SWIDTH 996 0
DWIDTH 12 0
BBX 8 36 0 -9
BITMAP
00
00
00
00
00
00
FF
FF
0F
0F
0F
0F
0F
0F
0F
0F
0F
0F
0F
0F
0F
0F
0F
0F
0F
FF
FF
00
00
00
00
00
00
00
00
00
ENDCHAR
STARTCHAR char97
ENCODING 97
SWIDTH 913 0
DWIDTH 11 0
BBX 7 36 0 -9
BITMAP
00
00
00
00
00
00
00
00
00
00
00
00
00
38
7C
FC
FC
CC
0C
3C
7C
CC
CC
FE
FE
FE
76
00
00
00
00
00
00
00
00
00
ENDCHAR
STARTCHAR char98
ENCODING 98
SWIDTH 830 0
DWIDTH 10 0
BBX 6 36 0 -9
BITMAP
00
00
00
00
00
00
00
00
E0
E0
E0
E0
E0
E0
F8
FC
FC
FC
CC
CC
CC
CC
CC
FC
FC
FC
F8
00
00
00
00
00
00
00
00
00
ENDCHAR
STARTCHAR char99
ENCODING 99
SWIDTH 830 0
DWIDTH 10 0
BBX 6 36 0 -9
BITMAP
00
00
00
00
00
00
00
00
00
00
00
00
00
78
FC
FC
FC
CC
CC
C0
C0
CC
CC
FC
FC
FC
78
00
00
00
00
00
00
00
00
00
ENDCHAR
STARTCHAR char100
ENCODING 100
SWIDTH 830 0
DWIDTH 10 0
BBX 6 36 0 -9
BITMAP
00
00
00
00
00
00
00
00
1C
1C
1C
1C
1C
1C
7C
FC
FC
CC
CC
CC
CC
CC
CC
FC
FC
FC
7C
00
00
00
00
00
00
00
00
00
ENDCHAR
STARTCHAR char101
ENCODING 101
SWIDTH 830 0
DWIDTH 10 0
BBX 6 36 0 -9
BITMAP
00
00
00
00
00
00
00
00
00
00
00
00
00
78
FC
FC
FC
CC
CC
FC
FC
C0
CC
FC
FC
FC
78
00
00
00
00
00
00
00
00
00
ENDCHAR
STARTCHAR char102
ENCODING 102
SWIDTH 747 0
DWIDTH 9 0
BBX 7 36 0 -9
BITMAP
00
00
00
00
00
00
00
00
1E
3E
7E
7E
70
70
70
FC
FC
FC
70
70
70
70
70
70
70
70
70
00
00
00
00
00
00
00
00
00
ENDCHAR
STARTCHAR char103
ENCODING 103
SWIDTH 996 0
DWIDTH 12 0
BBX 8 36 0 -9
BITMAP
00
00
00
00
00
00
00
00
00
00
00
00
00
07
07
06
3C
7C
FE
E6
E6
E6
E6
FE
FE
FC
F8
C0
FC
FE
C6
C6
FE
FE
7C
00
ENDCHAR
STARTCHAR char104
ENCODING 104
SWIDTH 913 0
DWIDTH 11 0
BBX 9 36 0 -9
BITMAP
0000
0000
0000
0000
0000
0000
0000
F000
F000
F000
F000
7000
7000
7E00
7F00
7F00
7F00
7300
7300
7300
7300
7300
7300
F780
F780
F780
F780
0000
0000
0000
0000
0000
0000
0000
0000
0000
ENDCHAR
STARTCHAR char105
ENCODING 105
SWIDTH 747 0
DWIDTH 9 0
BBX 5 36 0 -9
BITMAP
00
00
00
00
00
00
00
00
30
30
30
30
00
70
70
70
70
70
70
70
70
70
70
F8
F8
F8
F8
00
00
00
00
00
00
00
00
00
ENDCHAR
STARTCHAR char106
ENCODING 106
SWIDTH 664 0
DWIDTH 8 0
BBX 4 36 0 -9
BITMAP
00
00
00
00
00
00
00
00
30
30
30
30
00
F0
F0
F0
F0
70
70
70
70
70
70
70
70
70
70
70
F0
F0
F0
E0
00
00
00
00
ENDCHAR
STARTCHAR char107
ENCODING 107
SWIDTH 996 0
DWIDTH 12 0
BBX 8 36 0 -9
BITMAP
00
00
00
00
00
00
00
00
E0
E0
E0
E0
E0
E7
E7
E7
E7
E7
EE
FE
FC
EE
E6
E7
E7
E7
E7
00
00
00
00
00
00
00
00
00
ENDCHAR
STARTCHAR char108
ENCODING 108
SWIDTH 581 0
DWIDTH 7 0
BBX 5 36 0 -9
BITMAP
00
00
00
00
00
00
00
00
F0
F0
F0
F0
70
70
70
70
70
70
70
70
70
70
70
F8
F8
F8
F8
00
00
00
00
00
00
00
00
00
ENDCHAR
STARTCHAR char109
ENCODING 109
SWIDTH 1245 0
DWIDTH 15 0
BBX 12 36 0 -9
BITMAP
0000
0000
0000
0000
0000
0000
0000
0000
0000
0000
0000
0000
0000
ED80
FFC0
FFE0
FFE0
EEE0
EEE0
EEE0
EEE0
EEE0
EEE0
EEF0
EEF0
EEF0
EEF0
0000
0000
0000
0000
0000
0000
0000
0000
0000
ENDCHAR
STARTCHAR char110
ENCODING 110
SWIDTH 830 0
DWIDTH 10 0
BBX 7 36 0 -9
BITMAP
00
00
00
00
00
00
00
00
00
00
00
00
00
D8
FC
FC
FC
EC
EC
EC
EC
EC
EC
EE
EE
EE
EE
00
00
00
00
00
00
00
00
00
ENDCHAR
STARTCHAR char111
ENCODING 111
SWIDTH 664 0
DWIDTH 8 0
BBX 6 36 0 -9
BITMAP
00
00
00
00
00
00
00
00
00
00
00
00
00
78
FC
FC
FC
CC
CC
CC
CC
CC
FC
FC
FC
FC
78
00
00
00
00
00
00
00
00
00
ENDCHAR
STARTCHAR char112
ENCODING 112
SWIDTH 747 0
DWIDTH 9 0
BBX 6 36 0 -9
BITMAP
00
00
00
00
00
00
00
00
00
00
00
00
00
F8
FC
FC
FC
CC
CC
CC
CC
CC
CC
FC
FC
FC
F8
E0
E0
E0
E0
E0
00
00
00
00
ENDCHAR
STARTCHAR char113
ENCODING 113
SWIDTH 747 0
DWIDTH 9 0
BBX 6 36 0 -9
BITMAP
00
00
00
00
00
00
00
00
00
00
00
00
00
7C
FC
FC
FC
CC
CC
CC
CC
CC
CC
FC
FC
FC
7C
1C
1C
1C
1C
1C
00
00
00
00
ENDCHAR
STARTCHAR char114
ENCODING 114
SWIDTH 830 0
DWIDTH 10 0
BBX 8 36 0 -9
BITMAP
00
00
00
00
00
00
00
00
00
00
00
00
00
F6
FF
FF
FF
73
73
70
70
70
70
F8
F8
F8
F8
00
00
00
00
00
00
00
00
00
ENDCHAR
STARTCHAR char115
ENCODING 115
SWIDTH 830 0
DWIDTH 10 0
BBX 7 36 0 -9
BITMAP
00
00
00
00
00
00
00
00
00
00
00
00
00
7C
FE
E6
E6
E0
E0
70
38
1C
0E
CE
CE
FE
BC
00
00
00
00
00
00
00
00
00
ENDCHAR
STARTCHAR char116
ENCODING 116
SWIDTH 747 0
DWIDTH 9 0
BBX 5 36 0 -9
BITMAP
00
00
00
00
00
00
00
00
00
10
30
70
70
F8
F8
F8
F8
70
70
70
70
70
70
70
78
78
30
00
00
00
00
00
00
00
00
00
ENDCHAR
STARTCHAR char117
ENCODING 117
SWIDTH 996 0
DWIDTH 12 0
BBX 9 36 0 -9
BITMAP
0000
0000
0000
0000
0000
0000
0000
0000
0000
0000
0000
0000
0000
E700
E700
E700
E700
E700
E700
E700
E700
E700
E700
E700
FF80
FF80
7D80
0000
0000
0000
0000
0000
0000
0000
0000
0000
ENDCHAR
STARTCHAR char118
ENCODING 118
SWIDTH 664 0
DWIDTH 8 0
BBX 7 36 0 -9
BITMAP
00
00
00
00
00
00
00
00
00
00
00
00
00
EE
EE
EE
EE
EE
EE
EE
EE
EE
6C
6C
7C
38
38
00
00
00
00
00
00
00
00
00
ENDCHAR
STARTCHAR char119
ENCODING 119
SWIDTH 1162 0
DWIDTH 14 0
BBX 11 36 0 -9
BITMAP
0000
0000
0000
0000
0000
0000
0000
0000
0000
0000
0000
0000
0000
E4E0
EEE0
EEE0
EEE0
EEE0
EEE0
EEE0
EEE0
7FC0
7FC0
7FC0
3B80
3B80
3B80
0000
0000
0000
0000
0000
0000
0000
0000
0000
ENDCHAR
STARTCHAR char120
ENCODING 120
SWIDTH 830 0
DWIDTH 10 0
BBX 7 36 0 -9
BITMAP
00
00
00
00
00
00
00
00
00
00
00
00
00
EE
EE
EE
FE
7C
7C
38
38
78
7C
FE
EE
EE
EE
00
00
00
00
00
00
00
00
00
ENDCHAR
STARTCHAR char121
ENCODING 121
SWIDTH 830 0
DWIDTH 10 0
BBX 7 36 0 -9
BITMAP
00
00
00
00
00
00
00
00
00
00
00
00
00
EE
EE
EE
EE
EE
6C
6C
6C
7C
7C
38
38
38
B8
F8
F8
F0
60
00
00
00
00
00
ENDCHAR
STARTCHAR char122
ENCODING 122
SWIDTH 747 0
DWIDTH 9 0
BBX 6 36 0 -9
BITMAP
00
00
00
00
00
00
00
00
00
00
00
00
00
FC
FC
FC
FC
DC
1C
38
30
70
EC
FC
FC
FC
FC
00
00
00
00
00
00
00
00
00
ENDCHAR
ENDFONT
